<svg width="500" height="500" viewBox="0 0 500 500" fill="none" xmlns="http://www.w3.org/2000/svg">
<circle cx="261.443" cy="250.308" r="226.337" fill="#0F4C75" stroke="#0F4C75" stroke-width="7.94165"/>
<circle cx="238.308" cy="250.308" r="226.337" stroke="#0F4C75" stroke-width="7.94165"/>
<path d="M212.549 311.873L212.369 227.957L170.772 297.404H160.283L118.687 229.042V311.873H96.2613V185.276H115.613L165.889 269.192L215.262 185.276H234.613L234.794 311.873H212.549ZM321.075 185.276C332.047 185.276 341.571 187.085 349.65 190.702C357.848 194.319 364.118 199.503 368.458 206.255C372.799 213.007 374.969 221.025 374.969 230.308C374.969 239.471 372.799 247.489 368.458 254.362C364.118 261.113 357.848 266.298 349.65 269.915C341.571 273.532 332.047 275.341 321.075 275.341H292.5V311.873H268.989V185.276H321.075ZM319.99 255.447C330.238 255.447 338.015 253.277 343.32 248.936C348.625 244.596 351.277 238.386 351.277 230.308C351.277 222.23 348.625 216.021 343.32 211.681C338.015 207.34 330.238 205.17 319.99 205.17H292.5V255.447H319.99ZM407.224 176.414C411.444 176.414 414.941 177.801 417.714 180.574C420.487 183.347 421.873 186.904 421.873 191.244C421.873 193.414 421.572 195.524 420.969 197.574C420.487 199.624 419.462 202.698 417.894 206.798L408.49 232.479H393.841L401.075 204.627C398.423 203.663 396.313 202.035 394.745 199.744C393.299 197.333 392.575 194.5 392.575 191.244C392.575 186.904 393.962 183.347 396.735 180.574C399.508 177.801 403.004 176.414 407.224 176.414Z" fill="#EBEBEB"/>
</svg>
